<svg width="15" height="15" viewBox="0 0 15 15" fill="none" xmlns="http://www.w3.org/2000/svg">
<path d="M1.44294 2.41323C1.22957 2.18442 1.24209 1.82597 1.47089 1.6126L2.29659 0.842614C2.5254 0.629246 2.88385 0.641763 3.09721 0.870572L13.8943 12.4492C14.1077 12.678 14.0951 13.0365 13.8663 13.2498L13.0406 14.0198C12.8118 14.2332 12.4534 14.2207 12.24 13.9919L1.44294 2.41323Z" fill="white"/>
<path d="M14.2302 2.85976C14.459 2.64639 14.4715 2.28794 14.2582 2.05913L13.4882 1.23342C13.2748 1.00461 12.9164 0.992095 12.6876 1.20546L1.1091 12.0027C0.88029 12.2161 0.867772 12.5746 1.08114 12.8034L1.85111 13.6291C2.06447 13.8579 2.42292 13.8704 2.65173 13.657L14.2302 2.85976Z" fill="white"/>
</svg>
